<svg xmlns="http://www.w3.org/2000/svg" xmlns:xlink="http://www.w3.org/1999/xlink" width="94.722" height="36.193" viewBox="0 0 94.722 36.193">
  <defs>
    <linearGradient id="linear-gradient" x1="0.742" y1="1.164" x2="0.081" y2="-0.392" gradientUnits="objectBoundingBox">
      <stop offset="0.01" stop-color="#3e963a"/>
      <stop offset="0.066" stop-color="#5ea75b"/>
      <stop offset="0.174" stop-color="#97c695"/>
      <stop offset="0.273" stop-color="#c4dec2"/>
      <stop offset="0.36" stop-color="#e4f0e3"/>
      <stop offset="0.433" stop-color="#f7fbf7"/>
      <stop offset="0.482" stop-color="#fff"/>
    </linearGradient>
    <linearGradient id="linear-gradient-2" x1="0.406" y1="0.17" x2="0.526" y2="0.46" gradientUnits="objectBoundingBox">
      <stop offset="0" stop-color="#41a139"/>
      <stop offset="1" stop-color="#fff"/>
    </linearGradient>
  </defs>
  <g id="Symbol" transform="translate(-315.122 -1658.3)">
    <ellipse id="타원_59" data-name="타원 59" cx="13.552" cy="14.229" rx="13.552" ry="14.229" transform="translate(317.34 1664.852)" fill="#399d26"/>
    <path id="패스_506" data-name="패스 506" d="M336.476,1690.616c0,1.781-2.264,2.671-4.58,2.671s-4.193-1.444-4.193-3.224,1.877-3.225,4.193-3.225S336.476,1688.835,336.476,1690.616Z" transform="translate(-0.242)" fill="#fff"/>
    <g id="그룹_346" data-name="그룹 346" transform="translate(333.502 1681.043)">
      <path id="패스_507" data-name="패스 507" d="M335.183,1682.056c.035.583-.253,1.073-.642,1.095s-.733-.43-.767-1.011.253-1.073.642-1.1S335.149,1681.473,335.183,1682.056Z" transform="translate(-333.771 -1681.043)" fill="#0d463e"/>
      <path id="패스_508" data-name="패스 508" d="M334.673,1681.475c0,.161-.084.292-.191.293s-.2-.128-.2-.289.083-.292.19-.293S334.67,1681.314,334.673,1681.475Z" transform="translate(-333.771 -1681.043)" fill="#fff"/>
    </g>
    <path id="패스_509" data-name="패스 509" d="M334.961,1685.023c.249.282.806.194,1.245-.2s.593-.933.344-1.213-.807-.192-1.246.2S334.712,1684.743,334.961,1685.023Z" transform="translate(-0.289)" fill="#f5cbdf"/>
    <path id="패스_510" data-name="패스 510" d="M334.37,1678.913a.265.265,0,0,0,.1.362l.254.147a.264.264,0,0,0,.362-.1h0a.264.264,0,0,0-.1-.361l-.255-.148a.266.266,0,0,0-.362.1Z" transform="translate(-0.271)" fill="#0d463e"/>
    <path id="패스_511" data-name="패스 511" d="M322.242,1689.536s1.015-1.792,4.252-.4c0,0,5.84,2.27,6.208,3.846,0,0,.145.372-.048.563a11.765,11.765,0,0,1-10.324-2.56l-.425-.377S321.762,1690.294,322.242,1689.536Z" transform="translate(-0.142)" fill="url(#linear-gradient)"/>
    <path id="패스_512" data-name="패스 512" d="M330.041,1694.3a12.16,12.16,0,0,1-8-2.976l-.432-.383a.449.449,0,0,1-.109-.149c-.072-.16-.181-.625.363-1.487.118-.2,1.351-2.055,4.8-.575,1.022.4,6.01,2.419,6.462,4.124a.962.962,0,0,1-.16,1.008.442.442,0,0,1-.186.11A10.487,10.487,0,0,1,330.041,1694.3Zm-7.707-3.9.29.257a11.453,11.453,0,0,0,9.677,2.521c0-.013-.007-.026-.012-.038a.452.452,0,0,1-.016-.056c-.218-.929-3.6-2.627-5.939-3.535l-.014-.006c-2.8-1.2-3.662.156-3.7.215l-.008.013A1.776,1.776,0,0,0,322.334,1690.4Zm-.006.086h0Zm-.086-.951h0Z" transform="translate(-0.139)" fill="#093931"/>
    <path id="패스_513" data-name="패스 513" d="M330.321,1664.422a14.772,14.772,0,1,0,14.559,14.77A14.666,14.666,0,0,0,330.321,1664.422Zm.562,29c-7.492,0-13.566-6.371-13.566-14.229s6.074-14.229,13.566-14.229,13.567,6.37,13.567,14.229S338.376,1693.421,330.883,1693.421Z" fill="#fff"/>
    <g id="패스_514" data-name="패스 514" fill="#0b3931">
      <path d="M 330.3215026855469 1694.392944335938 C 321.99560546875 1694.392944335938 315.2219848632812 1687.524536132812 315.2219848632812 1679.08203125 C 315.2219848632812 1670.638916015625 321.99560546875 1663.77001953125 330.3215026855469 1663.77001953125 C 338.64794921875 1663.77001953125 345.4219970703125 1670.638916015625 345.4219970703125 1679.08203125 C 345.4219970703125 1687.524536132812 338.64794921875 1694.392944335938 330.3215026855469 1694.392944335938 Z M 330.3215026855469 1664.85302734375 C 322.58544921875 1664.85302734375 316.291748046875 1671.236083984375 316.291748046875 1679.08203125 C 316.291748046875 1686.927368164062 322.58544921875 1693.31005859375 330.3215026855469 1693.31005859375 C 338.0575561523438 1693.31005859375 344.3512878417969 1686.927368164062 344.3512878417969 1679.08203125 C 344.3512878417969 1671.236083984375 338.0575561523438 1664.85302734375 330.3215026855469 1664.85302734375 Z" stroke="none"/>
      <path d="M 330.3215026855469 1694.29296875 C 338.5928649902344 1694.29296875 345.3219909667969 1687.468994140625 345.3219909667969 1679.08203125 C 345.3219909667969 1670.693969726562 338.5928649902344 1663.869995117188 330.3215026855469 1663.869995117188 C 322.0511169433594 1663.869995117188 315.3219909667969 1670.693969726562 315.3219909667969 1679.08203125 C 315.3219909667969 1687.468994140625 322.0511169433594 1694.29296875 330.3215026855469 1694.29296875 M 330.3215026855469 1664.753051757812 C 338.1126403808594 1664.753051757812 344.4512939453125 1671.181030273438 344.4512939453125 1679.08203125 C 344.4512939453125 1686.982055664062 338.1126403808594 1693.410034179688 330.3215026855469 1693.410034179688 C 322.5303649902344 1693.410034179688 316.1917419433594 1686.982055664062 316.1917419433594 1679.08203125 C 316.1917419433594 1671.181030273438 322.5303649902344 1664.753051757812 330.3215026855469 1664.753051757812 M 330.3215026855469 1694.492919921875 C 321.9404602050781 1694.492919921875 315.1219787597656 1687.579711914062 315.1219787597656 1679.08203125 C 315.1219787597656 1670.583862304688 321.9404602050781 1663.670043945312 330.3215026855469 1663.670043945312 C 338.7030944824219 1663.670043945312 345.5220031738281 1670.583862304688 345.5220031738281 1679.08203125 C 345.5220031738281 1687.579711914062 338.7030944824219 1694.492919921875 330.3215026855469 1694.492919921875 Z M 330.3215026855469 1664.953002929688 C 322.6405944824219 1664.953002929688 316.3917541503906 1671.291259765625 316.3917541503906 1679.08203125 C 316.3917541503906 1686.872192382812 322.6405944824219 1693.210083007812 330.3215026855469 1693.210083007812 C 338.0024108886719 1693.210083007812 344.2512817382812 1686.872192382812 344.2512817382812 1679.08203125 C 344.2512817382812 1671.291259765625 338.0024108886719 1664.953002929688 330.3215026855469 1664.953002929688 Z" stroke="none" fill="#0b3931"/>
    </g>
    <g id="그룹_347" data-name="그룹 347" transform="translate(315.425 1658.3)">
      <path id="패스_515" data-name="패스 515" d="M328.232,1683.646c.736,1.379,2.312,3.292,3.98,2.129.79-.552.919-1.646,1.083-2.6A8.767,8.767,0,0,1,328.232,1683.646Z" transform="translate(-315.425 -1658.3)" fill="#ffb800"/>
      <path id="패스_516" data-name="패스 516" d="M323.21,1664.164s-3.773-1.323-3.692,1.8l-.179.4s-2.1-.684-3.04.6c-.639.873-.563,1.939.6,3.623l2.08,2.065,1.665,1.541a6.509,6.509,0,0,1,.6,4.685s-.709,5.764,2.342,8.338c0,0,1.757,2.342,7.1,2.312s8.22-2.851,8.466-5.729-2.3-7.643-2.753-8.219a8.06,8.06,0,0,1-1.09-8.753c1.97-4.356-1.232-8.939-4.315-7.953,0,0-2.5.709-2.219,3.051,0,0-3.129-3.519-5.369-.982C323.417,1660.944,322.486,1661.926,323.21,1664.164Z" transform="translate(-315.425 -1658.3)" fill="url(#linear-gradient-2)"/>
      <path id="패스_517" data-name="패스 517" d="M332.071,1679.017c.165.808.563,1.409.889,1.343s.456-.776.292-1.584-.564-1.409-.89-1.342S331.906,1678.209,332.071,1679.017Z" transform="translate(-315.425 -1658.3)" fill="#083931" fill-rule="evenodd"/>
      <circle id="타원_60" data-name="타원 60" cx="1.503" cy="1.503" r="1.503" transform="translate(7.983 22.844)" fill="#ed949c"/>
      <circle id="타원_61" data-name="타원 61" cx="1.179" cy="1.179" r="1.179" transform="translate(18.759 21.376)" fill="#ed949c"/>
      <path id="패스_518" data-name="패스 518" d="M326.606,1679.8c.165.807.562,1.409.889,1.342s.456-.775.291-1.583-.563-1.409-.889-1.343S326.441,1678.988,326.606,1679.8Z" transform="translate(-315.425 -1658.3)" fill="#083931" fill-rule="evenodd"/>
      <path id="패스_519" data-name="패스 519" d="M333.682,1682.648s-1.516,1.188-6.308.528c0,0,1.655,3.58,4.068,3.339C331.442,1686.515,333.579,1686.157,333.682,1682.648Z" transform="translate(-315.425 -1658.3)" fill="#ffb800"/>
      <path id="패스_520" data-name="패스 520" d="M330.594,1689.97c-5.09,0-7.035-2.1-7.32-2.444-3.159-2.709-2.492-8.457-2.462-8.7l.006-.037a6.181,6.181,0,0,0-.513-4.311l-1.631-1.511-2.088-2.071a3.6,3.6,0,0,1-.9-3.995c.636-1.55,2.542-1.278,3.389-1.07a2.3,2.3,0,0,1,.864-1.967,3.363,3.363,0,0,1,2.525-.353,3.329,3.329,0,0,1,.547-2.771,2.845,2.845,0,0,1,2.16-1.134,5.252,5.252,0,0,1,3.213,1.354,3.55,3.55,0,0,1,2.493-2.506,3.725,3.725,0,0,1,3.922,1.3,6.8,6.8,0,0,1,.923,7.256,7.553,7.553,0,0,0,.989,8.243l.045.056c.4.513,3.276,5.212,2.844,8.549-.391,3.02-3.3,6.081-8.9,6.113Zm-8.908-11.021c-.037.336-.563,5.608,2.191,7.93l.038.033.031.04c.014.019,1.733,2.162,6.749,2.135a9.624,9.624,0,0,0,5.834-1.711,5.487,5.487,0,0,0,2.2-3.633c.392-3.022-2.34-7.479-2.663-7.889l-.041-.053a8.492,8.492,0,0,1-1.1-9.155,5.912,5.912,0,0,0-.777-6.306,2.838,2.838,0,0,0-3-1.045l-.014.005c-.086.025-2.13.642-1.9,2.575l.159,1.347-.922-1c-.016-.017-1.68-1.792-3.264-1.738a1.975,1.975,0,0,0-1.509.817l-.026.03c-.025.027-.713.811-.186,2.659l.235.821-.806-.284a3.174,3.174,0,0,0-2.448.047,1.551,1.551,0,0,0-.5,1.375l0,.1-.386.862-.383-.134c-.022-.008-2.2-.75-2.692.46l-.012.027a2.732,2.732,0,0,0,.729,3.009l2.072,2.056,1.7,1.572.029.045A6.905,6.905,0,0,1,321.686,1678.949Z" transform="translate(-315.425 -1658.3)" fill="#083931"/>
      <path id="패스_521" data-name="패스 521" d="M321.854,1668.343a2.865,2.865,0,0,1-2.075-.708,2.687,2.687,0,0,1-.677-2.215.441.441,0,0,1,.871.144,1.814,1.814,0,0,0,.425,1.442,2.972,2.972,0,0,0,2.612.327.441.441,0,0,1,.172.866A6.837,6.837,0,0,1,321.854,1668.343Z" transform="translate(-315.425 -1658.3)" fill="#083931"/>
      <path id="패스_522" data-name="패스 522" d="M329.828,1667.208h-.019a.44.44,0,0,1-.422-.46c0-.031.122-3.115-.954-4.557a.441.441,0,0,1,.707-.528c1.265,1.7,1.135,4.985,1.129,5.124A.442.442,0,0,1,329.828,1667.208Z" transform="translate(-315.425 -1658.3)" fill="#083931"/>
      <path id="패스_523" data-name="패스 523" d="M323.693,1670.745a.328.328,0,0,1-.045,0,.441.441,0,0,1-.4-.481,1.973,1.973,0,0,0-1.279-1.951.441.441,0,0,1,.334-.817,2.851,2.851,0,0,1,1.823,2.855A.441.441,0,0,1,323.693,1670.745Z" transform="translate(-315.425 -1658.3)" fill="#083931"/>
      <path id="패스_524" data-name="패스 524" d="M325.194,1676.2a.441.441,0,0,1-.374-.674,1.863,1.863,0,0,1,1.285-.863,1.541,1.541,0,0,1,1.3.628.442.442,0,0,1-.666.58.733.733,0,0,0-.559-.328,1.018,1.018,0,0,0-.609.453A.441.441,0,0,1,325.194,1676.2Z" transform="translate(-315.425 -1658.3)" fill="#083931"/>
      <path id="패스_525" data-name="패스 525" d="M332.788,1674.731a.441.441,0,0,1-.4-.256c-.141-.3-.266-.391-.317-.4-.144-.007-.42.264-.541.45a.441.441,0,1,1-.74-.48c.06-.093.606-.9,1.343-.85a1.317,1.317,0,0,1,1.056.9.442.442,0,0,1-.4.627Z" transform="translate(-315.425 -1658.3)" fill="#083931"/>
      <path id="패스_526" data-name="패스 526" d="M330.154,1683.921a18.124,18.124,0,0,1-4.481-.647.441.441,0,0,1,.246-.848c.047.014,4.737,1.348,7.089.039a2.3,2.3,0,0,0,1.161-1.44.441.441,0,0,1,.85.239,3.182,3.182,0,0,1-1.582,1.973A6.878,6.878,0,0,1,330.154,1683.921Z" transform="translate(-315.425 -1658.3)" fill="#083931"/>
      <path id="패스_527" data-name="패스 527" d="M331.092,1686.97c-2.524,0-3.7-3.4-3.753-3.558a.441.441,0,1,1,.836-.282c.013.036,1.162,3.346,3.328,2.916a.279.279,0,0,1,.041-.006c.06-.009,1.614-.252,1.536-3.366a.441.441,0,0,1,.882-.022c.1,3.792-2.021,4.222-2.3,4.262A2.97,2.97,0,0,1,331.092,1686.97Z" transform="translate(-315.425 -1658.3)" fill="#083931"/>
    </g>
    <rect id="사각형_379" data-name="사각형 379" width="2.59" height="10.942" rx="1.295" transform="translate(334.224 1683.142)" fill="#09362d"/>
    <path id="패스_528" data-name="패스 528" d="M337.106,1684.511v-.528a.535.535,0,0,0-.533-.533h-1.524a.535.535,0,0,0-.533.533v.53A6.47,6.47,0,0,0,337.106,1684.511Z" transform="translate(-0.292)" fill="#0d2d27"/>
    <g id="그룹_349" data-name="그룹 349" transform="translate(328.721 1670.762)">
      <circle id="타원_62" data-name="타원 62" cx="4.964" cy="4.964" r="4.964" transform="translate(1.702 1.655)" fill="#fff"/>
      <path id="패스_529" data-name="패스 529" d="M334.8,1677.8c.211,1.03.718,1.8,1.134,1.712s.582-.989.372-2.019-.719-1.8-1.134-1.712S334.586,1676.77,334.8,1677.8Z" transform="translate(-329.144 -1670.762)" fill="#083931" fill-rule="evenodd"/>
      <circle id="타원_63" data-name="타원 63" cx="1.503" cy="1.503" r="1.503" transform="translate(8.348 7.879)" fill="#ed949c"/>
      <path id="패스_530" data-name="패스 530" d="M332.786,1681.013a4.77,4.77,0,0,0,1.823,1.09l6.151-5.853a4.764,4.764,0,0,0-.99-1.882Z" transform="translate(-329.144 -1670.762)" fill="#e3e2e1" opacity="0.5"/>
      <path id="패스_531" data-name="패스 531" d="M340.908,1676.972l-5.577,5.306c.078.012.154.024.233.033l5.355-5.094C340.914,1677.134,340.916,1677.054,340.908,1676.972Z" transform="translate(-329.144 -1670.762)" fill="#e3e2e1" opacity="0.5"/>
      <g id="그룹_348" data-name="그룹 348">
        <path id="패스_532" data-name="패스 532" d="M339.927,1672.463a6.45,6.45,0,1,0,.85,9.081A6.457,6.457,0,0,0,339.927,1672.463Zm-7.085,8.547a4.652,4.652,0,1,1,6.551-.612A4.657,4.657,0,0,1,332.842,1681.01Z" transform="translate(-329.144 -1670.762)" fill="#0d463e"/>
        <path id="패스_533" data-name="패스 533" d="M335.806,1684.1a6.668,6.668,0,1,1,5.14-2.411A6.636,6.636,0,0,1,335.806,1684.1Zm.011-12.893a6.226,6.226,0,1,0,3.969,1.43h0A6.2,6.2,0,0,0,335.817,1671.2Zm-.016,11.1a4.9,4.9,0,1,1,.464-.022C336.11,1682.293,335.955,1682.3,335.8,1682.3Zm-2.818-1.459a4.432,4.432,0,1,0-.584-6.24A4.4,4.4,0,0,0,332.983,1680.841Z" transform="translate(-329.144 -1670.762)" fill="#083931"/>
      </g>
      <path id="패스_534" data-name="패스 534" d="M340.908,1677.06a4.762,4.762,0,0,0-5.179-4.293c-.049.005-.1.011-.146.018a4.651,4.651,0,1,1-1.757,8.851,4.752,4.752,0,0,0,7.082-4.576Z" transform="translate(-329.144 -1670.762)" fill="#0d2d27"/>
    </g>
    <g id="그룹_351" data-name="그룹 351" transform="translate(332.523 1686.084)">
      <g id="그룹_350" data-name="그룹 350">
        <path id="패스_535" data-name="패스 535" d="M337.083,1686.591s-2.237-.149-2.013,1.641a2.389,2.389,0,0,0-1.715,2.461,2.917,2.917,0,0,0,2.759,3.057s3.077.128,3.43-3.581C339.544,1690.169,339.544,1686.964,337.083,1686.591Z" transform="translate(-332.843 -1686.084)" fill="#fff"/>
        <path id="패스_536" data-name="패스 536" d="M336.125,1694.253h-.032l-.031,0a3.379,3.379,0,0,1-3.212-3.552,2.821,2.821,0,0,1,1.7-2.81,1.7,1.7,0,0,1,.455-1.113,2.886,2.886,0,0,1,2.109-.687l.041.005c2.285.346,2.889,2.817,2.889,4.075,0,.016,0,.032,0,.048C339.671,1694.14,336.482,1694.253,336.125,1694.253Zm.021-1.006c.217,0,2.589-.034,2.894-3.1-.005-.277-.105-2.746-2.009-3.054a1.893,1.893,0,0,0-1.293.375.822.822,0,0,0-.169.7.5.5,0,0,1-.364.548,1.852,1.852,0,0,0-1.349,1.937.48.48,0,0,1,0,.066A2.38,2.38,0,0,0,336.146,1693.247Z" transform="translate(-332.843 -1686.084)" fill="#093931"/>
      </g>
      <path id="패스_537" data-name="패스 537" d="M336.172,1688.773a.49.49,0,0,1-.186-.036,1.286,1.286,0,0,0-.763-.026.506.506,0,0,1-.631-.327.5.5,0,0,1,.32-.63,2.262,2.262,0,0,1,1.446.048.5.5,0,0,1-.186.971Z" transform="translate(-332.843 -1686.084)" fill="#093931"/>
    </g>
  </g>
  <g id="H_LOGO" transform="translate(-464.437 -1240.393)" style="isolation: isolate">
    <path id="패스_638" data-name="패스 638" d="M505.626,1266.8h-3.273v-2.9h17.1v2.9H516.2v4.505h-3.5V1266.8h-3.56v4.505h-3.519Zm9.328-8.951v-2.2H503.274v-2.9h15.259v5.379a25.911,25.911,0,0,1-.389,4.922h-3.558a16.883,16.883,0,0,0,.307-2.461,24.6,24.6,0,0,1-5.258.4h-6.361v-2.858h6.4A33.155,33.155,0,0,0,514.954,1257.847Z" transform="translate(0 0.091)" fill="#01783e"/>
    <path id="패스_639" data-name="패스 639" d="M519.312,1256.928v-2.843h3.4v-2.006h3.5v2.006h3.4v2.843h-3.314c.348,2.066,1.616,2.941,3.641,3.3v2.862a8.57,8.57,0,0,1-5.441-2.384,8.919,8.919,0,0,1-5.5,2.6v-2.862c2.026-.358,3.314-1.331,3.641-3.516Zm8.244,12.637c-1.329,1.073-3.887,1.809-7.692,1.828v-2.741c3.15-.06,5.238-.577,5.768-1.927h-5.257v-2.783h14.443v2.783h-5.359c.573,1.31,2.679,1.867,5.809,1.927v2.741C531.4,1271.374,528.845,1270.638,527.556,1269.565Zm3.682-16.97h3.58v3.895h2.516v2.9h-2.516v3.815h-3.58Z" transform="translate(2.463 0)" fill="#01783e"/>
    <path id="패스_640" data-name="패스 640" d="M541.2,1266.62a8.315,8.315,0,0,1-5.543,3.454v-3.017c2.229-.873,3.764-2.362,3.764-7.542v-6.749h3.56v6.749c0,5.18,1.513,6.63,3.743,7.542v3.017A8.577,8.577,0,0,1,541.2,1266.62Zm6.812-14.073h3.58v7.166h2.638v2.9h-2.638v8.534h-3.58Z" transform="translate(4.933 0.064)" fill="#01783e"/>
  </g>
</svg>
